PathFileType	4	(X/Y/Z)	Walk10.trc
DataRate	CameraRate	NumFrames	NumMarkers	Units	OrigDataRate	OrigDataStartFrame	OrigNumFrames
200.000000	200.000000	6	61	mm	200.000000	251	495
Frame#	Times		LFHD		RFHD		CLAV		LASI		RASI		RACR1		RUA1		RFA1		RWRR		RCAR		LACR1		LUA1		LWRU		RTH3		LTH1		LTH3		LTH2		LTH4		LTB1		LTB2		LTB4		LLFC		RTB1		LCAR		LTB3		LFA1		STRN		RTB4		RWRU		RTB3		RTH2		LBHD		RMT5		RMFC		RLFC		RToe		RMT1		RTH4		RMMAL		RTB2		RTH1		LElbow		RElbow		LWRR		LMFC		T10		LPSI		RLMAL		RBHD		RBack		RCAL		RPSI		LToe		RElbowM		C7		LMMAL		LElbowM		LLMAL		LCAL		LMT5		LMT1
			X1	Y1	Z1	X2	Y2	Z2	X3	Y3	Z3	X4	Y4	Z4	X5	Y5	Z5	X6	Y6	Z6	X7	Y7	Z7	X8	Y8	Z8	X9	Y9	Z9	X10	Y10	Z10	X11	Y11	Z11	X12	Y12	Z12	X13	Y13	Z13	X14	Y14	Z14	X15	Y15	Z15	X16	Y16	Z16	X17	Y17	Z17	X18	Y18	Z18	X19	Y19	Z19	X20	Y20	Z20	X21	Y21	Z21	X22	Y22	Z22	X23	Y23	Z23	X24	Y24	Z24	X25	Y25	Z25	X26	Y26	Z26	X27	Y27	Z27	X28	Y28	Z28	X29	Y29	Z29	X30	Y30	Z30	X31	Y31	Z31	X32	Y32	Z32	X33	Y33	Z33	X34	Y34	Z34	X35	Y35	Z35	X36	Y36	Z36	X37	Y37	Z37	X38	Y38	Z38	X39	Y39	Z39	X40	Y40	Z40	X41	Y41	Z41	X42	Y42	Z42	X43	Y43	Z43	X44	Y44	Z44	X45	Y45	Z45	X46	Y46	Z46	X47	Y47	Z47	X48	Y48	Z48	X49	Y49	Z49	X50	Y50	Z50	X51	Y51	Z51	X52	Y52	Z52	X53	Y53	Z53	X54	Y54	Z54	X55	Y55	Z55	X56	Y56	Z56	X57	Y57	Z57	X58	Y58	Z58	X59	Y59	Z59	X60	Y60	Z60	X61	Y61	Z61

251	1.255	-232.41	1587.1	-20.955	-236.62	1591.3	78.763	-260.45	1302.2	32.311	-286.2	911.08	-82.956	-293.98	904.63	166.31	-327.65	1337	198.93	-327.8	1165.7	247.03	-276.71	878.77	296.8	-206.21	776.11	259.32	-205.83	711.66	311.19	-328.55	1352.6	-121.93	-356.89	1179.6	-183.28	-343	778.22	-242.98	-301.14	562.94	203.3	-310.77	739.84	-151.54	-280.16	574.96	-110.57	-241	672.75	-114.79	-296.8	656.86	-132.88	-225.93	339	-13.111	-253.7	251.45	-66.07	-244.59	254.8	-5.5692	-252.99	437.48	-83.838	-355.14	321.57	148.34	-382.03	719.41	-277.76	-257.97	171.69	3.0352	-388.67	895.06	-241.84	-242.21	1166.1	38.483	-431.78	279.3	143.51	-260.66	760.36	297.16	-507.19	238.09	135.51	-261.07	659.33	192.44	-366.15	1506.6	-46.354	-622.99	111.67	158.59	-304.51	412.43	52.223	-292.91	415.06	181.81	-569.47	47.275	117.26	-592.87	92.004	80.553	-313.02	645.71	215.86	-606.15	225.12	73.826	-454.9	317.41	185.39	-322.93	730.8	232.6	-397.68	1028.6	-207.16	-336.53	998.14	277.44	-411.43	778.4	-232.64	-280.28	431.93	46.075	-447.67	1201.1	35.741	-463.56	957.14	-10.264	-629.83	228.34	153.42	-371.1	1518.3	96.568	-448.07	1287.6	104.85	-675.04	257.64	109.49	-463.79	948.42	89.216	-127.55	28.279	12.164	-363.94	992.32	202.64	-366.55	1408.8	30.752	-309.83	83.654	40.373	-407.66	1007.9	-135.3	-317.07	62.763	-40.712	-376.54	37.213	-2.017	-212.27	24.522	-47.105	-184.7	30.365	37.648
252	1.26	-224.79	1588.1	-20.67	-228.95	1592.4	79.033	-253.74	1303.6	32.726	-279.04	912.04	-82.644	-287.12	906.47	166.54	-321.5	1338.2	199.29	-321.59	1166.9	247.29	-272.42	879.44	297.37	-203.39	775.57	260.18	-203.68	711.31	312.27	-321.56	1354.1	-121.56	-348.5	1181	-183.23	-327.36	780.23	-243.25	-289.83	565.33	203.54	-304.78	740.51	-151.09	-276.28	575.2	-110.38	-235.92	672.53	-114.23	-291.89	657.34	-132.56	-224.58	338.61	-13.088	-252.82	251.18	-66.023	-243.69	254.48	-5.5172	-251.04	437.25	-83.695	-339.58	323.74	148.4	-364.74	720.83	-278.59	-257.39	171.46	3.0667	-375.48	895.99	-242.32	-235.48	1167.6	39.098	-415.71	280.69	143.66	-257.97	760.73	298.24	-490.65	238.66	135.72	-251.26	662.38	193.06	-359.01	1508.3	-45.923	-603.02	111.08	159.09	-289.97	415.03	52.276	-278.52	417.89	181.94	-547.73	48.191	117.86	-572.54	91.906	81.073	-303.19	647.95	216.31	-589.33	224.33	73.817	-439.25	318.7	185.38	-314.71	732.75	233.02	-387.35	1029.4	-207.64	-330.51	999.37	277.52	-395.81	778.85	-233.29	-278.6	431.77	46.117	-440.79	1202.3	35.576	-456.38	958.43	-10.553	-613.09	227.22	153.5	-363.81	1520.2	96.981	-441.45	1288.7	104.76	-659.45	255.15	109.37	-456.83	949.77	88.964	-127.49	28.278	12.052	-357.85	993.65	202.79	-359.84	1410.1	31.106	-309.71	83.68	40.463	-397.5	1008.6	-135.91	-316.99	62.796	-40.66	-376.52	37.321	-1.9708	-212.26	24.559	-47.055	-184.68	30.35	37.675
253	1.265	-217.19	1589.1	-20.351	-221.31	1593.4	79.338	-247.05	1305	33.123	-271.86	912.98	-82.29	-280.25	908.29	166.77	-315.4	1339.5	199.62	-315.46	1168.1	247.55	-268.18	880.17	297.94	-200.6	775.12	261.08	-201.54	711.06	313.39	-314.61	1355.6	-121.2	-340.16	1182.4	-183.19	-311.69	782.42	-243.42	-278.58	567.79	203.82	-298.78	741.19	-150.61	-272.44	575.45	-110.18	-230.89	672.31	-113.61	-287	657.81	-132.2	-223.35	338.26	-13.01	-251.97	250.94	-65.94	-242.88	254.2	-5.4208	-249.21	437.05	-83.538	-324.05	325.97	148.58	-347.4	722.42	-279.27	-256.86	171.27	3.1381	-362.28	897	-242.73	-228.76	1169.1	39.699	-399.61	282.01	143.9	-255.29	761.19	299.33	-473.98	239.04	136	-241.53	665.5	193.73	-351.9	1510.1	-45.476	-582.82	110.19	159.59	-275.51	417.7	52.375	-264.28	420.84	182.12	-525.7	48.92	118.47	-551.92	91.55	81.614	-293.42	650.21	216.81	-572.31	223.17	73.827	-423.66	319.91	185.41	-306.53	734.73	233.49	-377.06	1030.4	-208.09	-324.56	1000.6	277.61	-380.11	779.45	-233.82	-277.11	431.64	46.154	-433.92	1203.4	35.396	-449.2	959.7	-10.82	-596.19	225.71	153.57	-356.55	1522.1	97.416	-434.85	1289.8	104.65	-643.64	252.21	109.25	-449.85	951.11	88.747	-127.42	28.265	11.943	-351.83	994.99	202.94	-353.18	1411.5	31.447	-309.59	83.723	40.55	-387.37	1009.3	-136.48	-316.9	62.848	-40.605	-376.48	37.445	-1.9235	-212.24	24.593	-46.998	-184.65	30.328	37.707
254	1.27	-209.62	1590.1	-19.998	-213.69	1594.5	79.675	-240.39	1306.5	33.5	-264.67	913.9	-81.902	-273.35	910.09	167.02	-309.33	1340.7	199.94	-309.39	1169.2	247.8	-263.99	880.95	298.52	-197.81	774.78	262.01	-199.42	710.92	314.54	-307.69	1357.1	-120.85	-331.87	1183.9	-183.17	-296	784.76	-243.49	-267.4	570.3	204.12	-292.79	741.85	-150.09	-268.65	575.72	-109.97	-225.9	672.1	-112.94	-282.13	658.27	-131.81	-222.24	337.95	-12.882	-251.13	250.72	-65.827	-242.14	253.95	-5.2842	-247.47	436.89	-83.372	-308.57	328.23	148.86	-330.01	724.18	-279.82	-256.37	171.11	3.2455	-349.07	898.11	-243.06	-222.06	1170.6	40.281	-383.47	283.23	144.23	-252.62	761.72	300.42	-457.19	239.22	136.35	-231.87	668.64	194.45	-344.81	1511.9	-45.019	-562.4	108.99	160.1	-261.16	420.42	52.522	-250.21	423.91	182.33	-503.42	49.462	119.1	-531.02	90.948	82.187	-283.71	652.49	217.34	-555.09	221.65	73.86	-408.13	321.02	185.47	-298.39	736.7	234	-366.82	1031.3	-208.51	-318.7	1001.9	277.7	-364.35	780.19	-234.25	-275.79	431.54	46.182	-427.06	1204.5	35.205	-442	960.96	-11.058	-579.12	223.81	153.63	-349.3	1524	97.869	-428.27	1290.8	104.52	-627.62	248.82	109.12	-442.84	952.44	88.569	-127.33	28.237	11.835	-345.89	996.35	203.11	-346.57	1412.8	31.771	-309.47	83.786	40.634	-377.27	1010.1	-137.03	-316.79	62.919	-40.547	-376.44	37.587	-1.8747	-212.22	24.624	-46.936	-184.61	30.3	37.742
255	1.275	-202.07	1591.1	-19.615	-206.11	1595.4	80.042	-233.75	1307.9	33.859	-257.47	914.78	-81.489	-266.44	911.83	167.29	-303.28	1341.9	200.24	-303.38	1170.4	248.04	-259.85	881.77	299.11	-195.03	774.52	262.98	-197.31	710.88	315.74	-300.8	1358.7	-120.51	-323.62	1185.3	-183.15	-280.3	787.26	-243.46	-256.3	572.85	204.46	-286.8	742.51	-149.55	-264.91	576.01	-109.74	-220.96	671.89	-112.24	-277.28	658.71	-131.39	-221.23	337.68	-12.711	-250.31	250.54	-65.688	-241.48	253.74	-5.1135	-245.83	436.76	-83.202	-293.17	330.52	149.27	-312.59	726.1	-280.22	-255.91	170.98	3.3831	-335.88	899.29	-243.33	-215.36	1172.1	40.838	-367.31	284.37	144.64	-249.96	762.32	301.5	-440.3	239.22	136.75	-222.28	671.81	195.21	-337.74	1513.7	-44.553	-541.79	107.52	160.63	-246.9	423.18	52.714	-236.31	427.06	182.59	-480.92	49.824	119.78	-509.89	90.109	82.802	-274.04	654.77	217.9	-537.7	219.76	73.92	-392.67	322.03	185.57	-290.28	738.67	234.55	-356.61	1032.3	-208.9	-312.91	1003.1	277.8	-348.53	781.08	-234.57	-274.64	431.5	46.2	-420.21	1205.6	35.006	-434.8	962.19	-11.264	-561.9	221.53	153.69	-342.06	1525.8	98.335	-421.7	1291.8	104.38	-611.38	245.01	108.98	-435.81	953.74	88.429	-127.23	28.193	11.728	-340.02	997.71	203.28	-339.98	1414.1	32.076	-309.34	83.868	40.715	-367.2	1011	-137.54	-316.68	63.01	-40.486	-376.39	37.748	-1.8236	-212.19	24.652	-46.869	-184.56	30.266	37.781
256	1.28	-194.55	1592.1	-19.204	-198.55	1596.4	80.438	-227.12	1309.2	34.199	-250.26	915.63	-81.058	-259.5	913.52	167.56	-297.25	1343.1	200.52	-297.43	1171.5	248.27	-255.75	882.63	299.7	-192.23	774.34	263.98	-195.2	710.91	316.98	-293.94	1360.2	-120.18	-315.41	1186.8	-183.15	-264.59	789.9	-243.33	-245.28	575.43	204.82	-280.82	743.15	-148.99	-261.21	576.3	-109.5	-216.06	671.68	-111.5	-272.46	659.15	-130.94	-220.31	337.45	-12.504	-249.5	250.38	-65.529	-240.86	253.56	-4.9165	-244.27	436.65	-83.03	-277.83	332.81	149.78	-295.15	728.17	-280.48	-255.49	170.88	3.5441	-322.68	900.55	-243.53	-208.66	1173.6	41.369	-351.14	285.4	145.13	-247.3	762.96	302.57	-423.31	239.03	137.22	-212.77	674.98	196.01	-330.69	1515.4	-44.082	-521.01	105.78	161.18	-232.73	425.97	52.949	-222.59	430.28	182.88	-458.24	50.015	120.5	-488.53	89.048	83.466	-264.43	657.03	218.49	-520.11	217.54	74.012	-377.29	322.92	185.7	-282.2	740.61	235.15	-346.46	1033.3	-209.27	-307.2	1004.4	277.91	-332.67	782.1	-234.78	-273.64	431.5	46.209	-413.35	1206.7	34.803	-427.59	963.37	-11.434	-544.52	218.89	153.76	-334.85	1527.5	98.811	-415.15	1292.8	104.22	-594.91	240.8	108.85	-428.76	955.01	88.329	-127.12	28.132	11.62	-334.2	999.05	203.44	-333.43	1415.3	32.358	-309.21	83.97	40.794	-357.18	1011.9	-138.02	-316.55	63.122	-40.42	-376.34	37.928	-1.7682	-212.16	24.678	-46.798	-184.5	30.228	37.824
